<svg width="20" height="20" viewBox="0 0 20 20" fill="none" xmlns="http://www.w3.org/2000/svg">
<path d="M8.12501 1.25C8.12501 0.558594 8.6836 0 9.37501 0H10.625C11.3164 0 11.875 0.558594 11.875 1.25V6.75391L16.6406 4.00391C17.2383 3.66016 18.0039 3.86328 18.3477 4.46094L18.9727 5.54297C19.3164 6.14062 19.1133 6.90625 18.5156 7.25L13.75 10L18.5156 12.75C19.1133 13.0938 19.3203 13.8594 18.9727 14.457L18.3477 15.5391C18.0039 16.1367 17.2383 16.3438 16.6406 15.9961L11.875 13.2461V18.75C11.875 19.4414 11.3164 20 10.625 20H9.37501C8.6836 20 8.12501 19.4414 8.12501 18.75V13.2461L3.35938 16C2.76173 16.3438 1.9961 16.1406 1.65235 15.543L1.02735 14.4609C0.683603 13.8633 0.886728 13.0977 1.48438 12.7539L6.25001 10L1.48438 7.25C0.886728 6.90625 0.683603 6.14062 1.02735 5.54297L1.65235 4.46094C1.9961 3.85938 2.76173 3.65625 3.35938 4L8.12501 6.75V1.25Z" fill="white"/>
</svg>
