<svg xmlns="http://www.w3.org/2000/svg" xmlns:xlink="http://www.w3.org/1999/xlink" width="1900" zoomAndPan="magnify" viewBox="0 0 1425 176.249993" height="235" preserveAspectRatio="xMidYMid meet" version="1.0"><defs><g/></defs><g fill="#ffffff" fill-opacity="1"><g transform="translate(3.019096, 158.635019)"><g><path d="M 137.96875 -144.28125 C 138.675781 -144.28125 139.671875 -143.957031 140.953125 -143.3125 C 142.234375 -142.664062 142.875 -140.945312 142.875 -138.15625 L 142.875 -22.40625 C 142.875 -13.882812 141.648438 -8.050781 139.203125 -4.90625 C 136.742188 -1.519531 132.945312 0.171875 127.8125 0.171875 L 115.03125 0.171875 C 112.695312 0.171875 110.710938 0 109.078125 -0.34375 C 108.265625 -0.582031 107.445312 -0.847656 106.625 -1.140625 C 105.8125 -1.429688 105.054688 -1.8125 104.359375 -2.28125 C 102.953125 -3.09375 101.664062 -4.375 100.5 -6.125 C 99.914062 -6.945312 99.273438 -7.878906 98.578125 -8.921875 C 97.878906 -9.972656 97.179688 -11.203125 96.484375 -12.609375 L 40.96875 -111.015625 C 40.851562 -111.242188 40.738281 -111.382812 40.625 -111.4375 C 40.507812 -111.5 40.453125 -111.53125 40.453125 -111.53125 L 39.578125 -111.53125 C 39.578125 -111.53125 39.578125 -111.5 39.578125 -111.4375 C 39.578125 -111.382812 39.578125 -111.300781 39.578125 -111.1875 L 39.578125 -5.953125 C 39.578125 -3.265625 38.960938 -1.570312 37.734375 -0.875 C 36.503906 -0.175781 35.484375 0.171875 34.671875 0.171875 L 19.078125 0.171875 C 18.265625 0.171875 17.210938 -0.175781 15.921875 -0.875 C 14.640625 -1.570312 14 -3.265625 14 -5.953125 L 14 -121.6875 C 14 -130.207031 15.226562 -136.101562 17.6875 -139.375 C 20.25 -142.644531 24.039062 -144.28125 29.0625 -144.28125 L 42.203125 -144.28125 C 43.367188 -144.28125 44.472656 -144.25 45.515625 -144.1875 C 46.566406 -144.132812 47.503906 -144.046875 48.328125 -143.921875 C 50.191406 -143.578125 51.828125 -142.878906 53.234375 -141.828125 C 54.398438 -141.003906 55.625 -139.660156 56.90625 -137.796875 C 57.488281 -136.984375 58.097656 -136.050781 58.734375 -135 C 59.378906 -133.945312 60.050781 -132.78125 60.75 -131.5 L 116.09375 -33.09375 C 116.207031 -32.738281 116.378906 -32.5625 116.609375 -32.5625 L 117.484375 -32.5625 C 117.484375 -32.6875 117.484375 -32.75 117.484375 -32.75 C 117.484375 -32.75 117.484375 -32.804688 117.484375 -32.921875 L 117.484375 -138.15625 C 117.484375 -140.945312 118.097656 -142.664062 119.328125 -143.3125 C 120.554688 -143.957031 121.578125 -144.28125 122.390625 -144.28125 Z M 137.96875 -144.28125 "/></g></g></g><g fill="#ffffff" fill-opacity="1"><g transform="translate(168.657329, 158.635019)"><g><path d="M 97.875 -60.0625 L 128.171875 -7.53125 C 128.867188 -6.707031 129.101562 -5.363281 128.875 -3.5 C 128.632812 -1.050781 127.289062 0.171875 124.84375 0.171875 L 105.9375 0.171875 C 104.1875 0.171875 102.957031 -0.175781 102.25 -0.875 C 101.550781 -1.457031 100.910156 -2.273438 100.328125 -3.328125 L 73.015625 -51.296875 C 71.148438 -54.804688 69.222656 -57.082031 67.234375 -58.125 C 65.253906 -59.289062 62.101562 -59.875 57.78125 -59.875 L 40.09375 -59.875 L 40.09375 -5.953125 C 40.09375 -3.265625 39.453125 -1.570312 38.171875 -0.875 C 36.890625 -0.175781 35.894531 0.171875 35.1875 0.171875 L 19.078125 0.171875 C 18.378906 0.171875 17.359375 -0.175781 16.015625 -0.875 C 14.671875 -1.570312 14 -3.265625 14 -5.953125 L 14 -138.15625 C 14 -140.945312 14.671875 -142.664062 16.015625 -143.3125 C 17.359375 -143.957031 18.378906 -144.28125 19.078125 -144.28125 L 35.1875 -144.28125 C 35.894531 -144.28125 36.890625 -143.957031 38.171875 -143.3125 C 39.453125 -142.664062 40.09375 -140.945312 40.09375 -138.15625 L 40.09375 -85.796875 L 56.203125 -85.796875 C 57.367188 -85.796875 58.414062 -85.820312 59.34375 -85.875 C 60.28125 -85.9375 61.101562 -86.023438 61.8125 -86.140625 C 63.207031 -86.378906 64.429688 -86.734375 65.484375 -87.203125 C 66.535156 -87.785156 67.46875 -88.597656 68.28125 -89.640625 C 68.75 -90.222656 69.242188 -90.894531 69.765625 -91.65625 C 70.296875 -92.414062 70.796875 -93.207031 71.265625 -94.03125 L 97.703125 -140.78125 C 98.171875 -141.707031 98.8125 -142.523438 99.625 -143.234375 C 100.320312 -143.929688 101.609375 -144.28125 103.484375 -144.28125 L 120.8125 -144.28125 C 122.914062 -144.28125 124.257812 -143.285156 124.84375 -141.296875 C 125.070312 -139.785156 124.894531 -138.382812 124.3125 -137.09375 L 95.421875 -86.328125 C 93.671875 -83.398438 92.097656 -80.769531 90.703125 -78.4375 C 90.117188 -77.625 89.5625 -76.835938 89.03125 -76.078125 C 88.507812 -75.316406 87.957031 -74.585938 87.375 -73.890625 C 89.125 -72.253906 90.875 -70.269531 92.625 -67.9375 C 94.375 -65.601562 96.125 -62.976562 97.875 -60.0625 Z M 97.875 -60.0625 "/></g></g></g><g fill="#ffffff" fill-opacity="1"><g transform="translate(320.463202, 158.635019)"><g><path d="M 225.515625 -146.375 C 226.921875 -146.375 227.882812 -146.082031 228.40625 -145.5 C 228.9375 -144.914062 229.257812 -144.332031 229.375 -143.75 C 229.71875 -142.582031 229.597656 -141.179688 229.015625 -139.546875 L 189.984375 -18.390625 C 187.410156 -11.960938 184.835938 -7.640625 182.265625 -5.421875 C 181.921875 -5.191406 181.539062 -4.898438 181.125 -4.546875 C 180.71875 -4.203125 180.222656 -3.910156 179.640625 -3.671875 C 176.140625 -1.222656 172.113281 0 167.5625 0 C 162.78125 0 158.429688 -1.457031 154.515625 -4.375 C 150.609375 -7.289062 148.015625 -11.023438 146.734375 -15.578125 C 146.609375 -15.929688 146.429688 -16.34375 146.203125 -16.8125 C 145.972656 -17.28125 145.738281 -17.742188 145.5 -18.203125 L 121.34375 -98.921875 L 95.421875 -18.390625 C 94.140625 -15.117188 92.851562 -12.429688 91.5625 -10.328125 C 90.28125 -8.222656 89 -6.585938 87.71875 -5.421875 C 87.25 -5.191406 86.835938 -4.898438 86.484375 -4.546875 C 86.140625 -4.203125 85.675781 -3.910156 85.09375 -3.671875 C 81.59375 -1.222656 77.566406 0 73.015625 0 C 68.222656 0 63.875 -1.457031 59.96875 -4.375 C 56.0625 -7.289062 53.460938 -11.023438 52.171875 -15.578125 C 52.054688 -15.929688 51.878906 -16.34375 51.640625 -16.8125 C 51.410156 -17.28125 51.179688 -17.742188 50.953125 -18.203125 L 14.703125 -139.546875 C 14.117188 -140.953125 14.003906 -142.351562 14.359375 -143.75 C 14.472656 -144.21875 14.765625 -144.769531 15.234375 -145.40625 C 15.703125 -146.050781 16.632812 -146.375 18.03125 -146.375 L 36.765625 -146.375 C 39.222656 -146.375 40.914062 -145.09375 41.84375 -142.53125 L 72.484375 -37.296875 C 72.484375 -37.179688 72.507812 -37.09375 72.5625 -37.03125 C 72.625 -36.96875 72.65625 -36.9375 72.65625 -36.9375 L 73.359375 -37.125 C 73.359375 -37.125 73.359375 -37.148438 73.359375 -37.203125 C 73.359375 -37.265625 73.421875 -37.351562 73.546875 -37.46875 L 106.625 -142.53125 C 107.675781 -145.09375 109.367188 -146.375 111.703125 -146.375 L 131.5 -146.375 C 133.832031 -146.375 135.460938 -145.09375 136.390625 -142.53125 L 167.046875 -37.296875 C 167.046875 -37.179688 167.070312 -37.09375 167.125 -37.03125 C 167.1875 -36.96875 167.21875 -36.9375 167.21875 -36.9375 L 167.921875 -37.125 C 167.921875 -37.125 167.921875 -37.148438 167.921875 -37.203125 C 167.921875 -37.265625 167.976562 -37.351562 168.09375 -37.46875 L 201.1875 -142.53125 C 202.238281 -145.09375 203.929688 -146.375 206.265625 -146.375 Z M 225.515625 -146.375 "/></g></g></g><g fill="#ffffff" fill-opacity="1"><g transform="translate(572.947681, 158.635019)"><g/></g></g><g fill="#ffffff" fill-opacity="1"><g transform="translate(671.700303, 158.635019)"><g><path d="M 135 -144.28125 C 135.8125 -144.28125 136.859375 -143.957031 138.140625 -143.3125 C 139.429688 -142.664062 140.078125 -141.003906 140.078125 -138.328125 L 140.078125 -124.671875 C 140.078125 -121.753906 139.429688 -119.972656 138.140625 -119.328125 C 136.859375 -118.679688 135.8125 -118.359375 135 -118.359375 L 90 -118.359375 L 90 -5.953125 C 90 -3.265625 89.382812 -1.597656 88.15625 -0.953125 C 86.9375 -0.316406 85.914062 0 85.09375 0 L 68.984375 0 C 68.285156 0 67.289062 -0.316406 66 -0.953125 C 64.71875 -1.597656 64.078125 -3.265625 64.078125 -5.953125 L 64.078125 -118.359375 L 19.078125 -118.359375 C 18.265625 -118.359375 17.210938 -118.679688 15.921875 -119.328125 C 14.640625 -119.972656 14 -121.753906 14 -124.671875 L 14 -138.328125 C 14 -141.003906 14.640625 -142.664062 15.921875 -143.3125 C 17.210938 -143.957031 18.265625 -144.28125 19.078125 -144.28125 Z M 135 -144.28125 "/></g></g></g><g fill="#ffffff" fill-opacity="1"><g transform="translate(834.53703, 158.635019)"><g><path d="M 119.234375 -31.34375 C 120.054688 -31.34375 121.109375 -31.019531 122.390625 -30.375 C 123.671875 -29.738281 124.3125 -28.078125 124.3125 -25.390625 L 124.3125 -6.125 C 124.3125 -3.4375 123.671875 -1.769531 122.390625 -1.125 C 121.109375 -0.488281 120.054688 -0.171875 119.234375 -0.171875 L 57.078125 -0.171875 C 53.222656 -0.171875 49.660156 -0.40625 46.390625 -0.875 C 43.128906 -1.34375 40.15625 -2.101562 37.46875 -3.15625 C 31.75 -5.132812 27.195312 -8.34375 23.8125 -12.78125 C 20.3125 -17.332031 17.800781 -23.050781 16.28125 -29.9375 C 15.695312 -32.851562 15.203125 -36.0625 14.796875 -39.5625 C 14.390625 -43.070312 14.125 -46.867188 14 -50.953125 L 14 -51.828125 L 14.359375 -73.890625 C 14.710938 -75.171875 15.351562 -76.628906 16.28125 -78.265625 C 18.851562 -82.816406 22.820312 -85.269531 28.1875 -85.625 L 118.53125 -85.796875 C 119.238281 -85.796875 120.234375 -85.472656 121.515625 -84.828125 C 122.796875 -84.191406 123.4375 -82.53125 123.4375 -79.84375 L 123.4375 -66.015625 C 123.4375 -63.328125 122.796875 -61.628906 121.515625 -60.921875 C 120.234375 -60.222656 119.238281 -59.875 118.53125 -59.875 L 40.265625 -59.875 C 40.265625 -59.875 40.234375 -59.234375 40.171875 -57.953125 C 40.117188 -56.671875 40.0625 -55.210938 40 -53.578125 C 39.945312 -51.941406 39.921875 -50.484375 39.921875 -49.203125 C 39.921875 -47.921875 39.921875 -47.28125 39.921875 -47.28125 C 40.035156 -46.8125 40.09375 -46.3125 40.09375 -45.78125 C 40.09375 -45.257812 40.148438 -44.765625 40.265625 -44.296875 C 40.734375 -41.023438 41.726562 -38.398438 43.25 -36.421875 C 44.644531 -34.671875 46.394531 -33.382812 48.5 -32.5625 C 49.78125 -32.21875 51.148438 -31.925781 52.609375 -31.6875 C 54.066406 -31.457031 55.734375 -31.34375 57.609375 -31.34375 Z M 29.421875 -84.21875 Z M 119.40625 -144.625 C 120.113281 -144.625 121.109375 -144.273438 122.390625 -143.578125 C 123.671875 -142.878906 124.3125 -141.1875 124.3125 -138.5 L 124.3125 -124.671875 C 124.3125 -121.984375 123.671875 -120.285156 122.390625 -119.578125 C 121.109375 -118.878906 120.113281 -118.53125 119.40625 -118.53125 L 18.734375 -118.71875 C 18.035156 -118.71875 17.070312 -119.035156 15.84375 -119.671875 C 14.613281 -120.316406 14 -121.984375 14 -124.671875 L 14 -138.328125 C 14 -141.128906 14.613281 -142.878906 15.84375 -143.578125 C 17.070312 -144.273438 18.035156 -144.625 18.734375 -144.625 Z M 119.40625 -144.625 "/></g></g></g><g fill="#ffffff" fill-opacity="1"><g transform="translate(981.615386, 158.635019)"><g><path d="M 120.984375 -144.28125 C 121.691406 -144.28125 122.6875 -143.925781 123.96875 -143.21875 C 125.25 -142.519531 125.890625 -140.832031 125.890625 -138.15625 L 125.890625 -124.671875 C 125.890625 -121.867188 125.25 -120.113281 123.96875 -119.40625 C 122.6875 -118.707031 121.691406 -118.359375 120.984375 -118.359375 L 58.125 -118.359375 C 54.15625 -118.359375 51.125 -117.953125 49.03125 -117.140625 C 46.925781 -116.441406 45.171875 -115.15625 43.765625 -113.28125 C 42.484375 -111.53125 41.492188 -108.960938 40.796875 -105.578125 C 40.566406 -103.941406 40.363281 -102.046875 40.1875 -99.890625 C 40.007812 -97.734375 39.921875 -95.3125 39.921875 -92.625 L 39.921875 -51.828125 C 39.921875 -49.253906 40.007812 -46.859375 40.1875 -44.640625 C 40.363281 -42.429688 40.566406 -40.453125 40.796875 -38.703125 C 41.148438 -37.066406 41.554688 -35.601562 42.015625 -34.3125 C 42.484375 -33.03125 43.066406 -31.921875 43.765625 -30.984375 C 45.171875 -29.117188 46.925781 -27.835938 49.03125 -27.140625 C 51.125 -26.316406 54.15625 -25.90625 58.125 -25.90625 L 120.984375 -25.90625 C 121.691406 -25.90625 122.6875 -25.554688 123.96875 -24.859375 C 125.25 -24.160156 125.890625 -22.46875 125.890625 -19.78125 L 125.890625 -5.953125 C 125.890625 -3.265625 125.25 -1.570312 123.96875 -0.875 C 122.6875 -0.175781 121.691406 0.171875 120.984375 0.171875 L 57.25 0.171875 C 49.664062 0.171875 43.070312 -0.816406 37.46875 -2.796875 C 32.101562 -4.671875 27.609375 -7.882812 23.984375 -12.4375 C 20.367188 -17.101562 17.800781 -22.820312 16.28125 -29.59375 C 15.46875 -33.09375 14.882812 -36.941406 14.53125 -41.140625 C 14.175781 -45.347656 14 -49.898438 14 -54.796875 L 14 -89.46875 C 14 -94.257812 14.175781 -98.753906 14.53125 -102.953125 C 14.882812 -107.160156 15.46875 -110.957031 16.28125 -114.34375 C 17.800781 -121.34375 20.367188 -127.0625 23.984375 -131.5 C 27.367188 -135.9375 31.863281 -139.203125 37.46875 -141.296875 C 43.070312 -143.285156 49.664062 -144.28125 57.25 -144.28125 Z M 120.984375 -144.28125 "/></g></g></g><g fill="#ffffff" fill-opacity="1"><g transform="translate(1130.269583, 158.635019)"><g><path d="M 127.125 -144.28125 C 127.9375 -144.28125 128.984375 -143.925781 130.265625 -143.21875 C 131.554688 -142.519531 132.203125 -140.832031 132.203125 -138.15625 L 132.203125 -5.953125 C 132.203125 -3.265625 131.554688 -1.570312 130.265625 -0.875 C 128.984375 -0.175781 127.9375 0.171875 127.125 0.171875 L 111.015625 0.171875 C 110.304688 0.171875 109.335938 -0.175781 108.109375 -0.875 C 106.890625 -1.570312 106.28125 -3.265625 106.28125 -5.953125 L 106.28125 -59.875 L 39.921875 -59.875 L 39.921875 -5.953125 C 39.921875 -3.265625 39.304688 -1.570312 38.078125 -0.875 C 36.859375 -0.175781 35.835938 0.171875 35.015625 0.171875 L 19.078125 0.171875 C 18.265625 0.171875 17.210938 -0.175781 15.921875 -0.875 C 14.640625 -1.570312 14 -3.265625 14 -5.953125 L 14 -138.15625 C 14 -140.832031 14.640625 -142.519531 15.921875 -143.21875 C 17.210938 -143.925781 18.265625 -144.28125 19.078125 -144.28125 L 35.015625 -144.28125 C 35.835938 -144.28125 36.859375 -143.925781 38.078125 -143.21875 C 39.304688 -142.519531 39.921875 -140.832031 39.921875 -138.15625 L 39.921875 -85.796875 L 106.28125 -85.796875 L 106.28125 -138.15625 C 106.28125 -140.832031 106.890625 -142.519531 108.109375 -143.21875 C 109.335938 -143.925781 110.304688 -144.28125 111.015625 -144.28125 Z M 127.125 -144.28125 "/></g></g></g></svg>